<?xml version="1.0" encoding="UTF-8" standalone="no"?>
<!-- Created with Inkscape (http://www.inkscape.org/) -->

<svg
   version="1.1"
   id="svg1"
   width="1024"
   height="1024"
   viewBox="0 0 1024 1024"
   xmlns="http://www.w3.org/2000/svg"
   xmlns:svg="http://www.w3.org/2000/svg">
  <defs
     id="defs1" />
  <style
     id="style1">
    #kitsune {
      stroke: white;
      stroke-width: 32;
      fill: white;
    }
  </style>
  <g
     id="g1"
     transform="matrix(1.2401836,0,0,1.2989695,-170.39003,-87.924068)">
    <path
       id="kitsune"
       d="m 780.5,795.92173 c -10.69862,-1.46039 -26.38796,-5.4736 -37.22802,-9.52263 -24.44858,-9.13213 -41.20194,-20.15754 -61.32875,-40.36051 l -14.55677,-14.61185 -8.94323,4.28164 c -11.2374,5.38001 -21.40771,8.65957 -35.72336,11.51953 l -11.21987,2.24148 -208,0.32584 c -152.91245,0.23954 -209.98633,0.022 -215.5,-0.8215 -10.23159,-1.56521 -18.00899,-5.20685 -23.37734,-10.94605 -5.51539,-5.8964 -7.12392,-8.99265 -8.74228,-16.82795 -3.63396,-17.59391 7.16997,-38.23058 26.69841,-50.99682 l 7.49652,-4.90067 -8.28765,-0.64513 c -4.55821,-0.35482 -13.26016,-0.64782 -19.33766,-0.65112 -11.87722,-0.006 -13.45216,-0.58689 -13.44697,-4.95599 0.005,-3.79942 3.69481,-22.23335 6.6163,-33.05 2.68081,-9.92553 9.88192,-29.04246 14.06594,-37.34116 l 2.44081,-4.84116 -5.46415,-16.65884 C 146.86387,506.79954 146.0914,437.48432 164.51044,374.10285 176.57538,332.5864 197.28398,293.00917 225.78396,257 c 10.14402,-12.81678 40.28166,-42.61585 53.21705,-52.61922 43.26253,-33.45634 93.44757,-57.12188 146.10969,-68.9003 28.49454,-6.3731 47.77821,-8.43945 78.99408,-8.46465 31.0674,-0.0251 53.83373,2.29534 79.35781,8.08841 65.21539,14.80161 125.84553,47.57127 173.91241,93.99698 24.56193,23.72331 37.43153,39.55498 53.77169,66.14784 32.07945,52.2078 48.85353,106.72316 50.53912,164.25094 0.82027,27.9948 -2.25421,58.70966 -8.14399,81.36062 -0.90965,3.49835 -1.48405,6.53048 -1.27646,6.73808 0.6971,0.69709 13.58972,-25.02276 17.10208,-34.11742 6.21403,-16.09015 10.12512,-34.70639 12.12878,-57.73128 0.81172,-9.32772 1.80947,-9.73776 9.29573,-3.82022 10.56656,8.35239 24.21094,26.40619 32.17296,42.57022 11.40224,23.14818 14.4907,36.90052 14.48521,64.5 -0.004,21.40608 -1.66546,32.67926 -7.12833,48.37367 -8.2749,23.77316 -23.4344,46.49284 -40.49594,60.6916 -3.26132,2.7141 -5.45876,4.93473 -4.88318,4.93473 1.55096,0 20.5035,-8.86716 28.55733,-13.36086 3.85,-2.14815 12.5335,-7.67074 19.29666,-12.27243 C 939.55982,642.76502 945.91722,639 946.92421,639 c 1.007,0 2.4485,0.74491 3.20335,1.65537 1.98976,2.39994 1.70956,18.66683 -0.5295,30.73968 -2.3231,12.52604 -9.1656,33.72283 -14.4812,44.86009 -18.7969,39.38337 -56.58226,67.73693 -103.61686,77.75251 -11.53195,2.45562 -39.37687,3.50067 -51,1.91408 z m 56.07111,-17.274 c 23.74852,-5.96653 40.21094,-14.6047 58.11185,-30.49247 20.52406,-18.21592 36.37656,-46.34082 41.68744,-73.96026 1.94292,-10.10426 2.41995,-13.195 2.03654,-13.195 -0.17365,0 -4.94393,3.00339 -10.60064,6.67419 -29.88013,19.39013 -63.21384,29.79124 -99.3063,30.9865 -36.42378,1.20624 -66.34167,-5.05033 -99.85081,-20.8813 -14.09387,-6.65847 -12.92216,-6.70863 -16.83126,0.72061 -4.34665,8.26079 -15.52901,24.00774 -22.14048,31.17808 -2.17335,2.35707 -2.77563,3.79459 -2.3314,5.56455 1.00093,3.98804 10.38432,15.69534 21.06947,26.28758 19.69095,19.51975 44.72734,33.04711 70.08448,37.86722 4.4,0.83639 8.9,1.74091 10,2.01005 1.1,0.26914 10.1,0.32761 20,0.12992 15.13815,-0.30228 19.60123,-0.76171 28.07111,-2.88967 z M 297.13503,738.02302 c 30.45073,-0.53734 63.67982,-1.26517 73.84242,-1.6174 l 18.47745,-0.64041 -8.20684,-2.36933 C 357.56721,726.5592 331.74638,715.76254 287,693.98723 243.83817,672.98302 231.91937,669.07704 217.20277,671.1136 c -21.64218,2.99495 -45.40512,23.32805 -47.7953,40.89675 -1.70375,12.52321 7.7372,23.49857 22.32403,25.95228 6.88022,1.15735 42.09589,1.17753 105.40353,0.0604 z m 323.78574,-7.95274 c 33.81294,-6.11719 59.30099,-21.70552 76.03223,-46.50083 27.59521,-40.89545 27.17831,-94.37932 -1.06189,-136.23062 -12.62447,-18.70916 -31.78567,-33.69565 -52.96458,-41.42499 -14.24533,-5.1989 -20.85773,-6.2674 -38.92653,-6.29015 -14.02663,-0.0177 -17.82774,0.32393 -25.35743,2.27878 -26.18438,6.79797 -46.70779,20.28428 -62.54207,41.09753 -7.50342,9.86283 -10.39049,14.9964 -15.06305,26.78405 C 496.11629,582.19885 494,593.36834 494,606.92681 c 0,22.29141 6.22642,40.90048 18.381,54.93578 13.14621,15.18036 27.26847,22.35247 55.619,28.24655 L 579.5,692.5 569,692.72421 c -16.40921,0.3504 -38.22122,2.13947 -45.97858,3.77128 -7.17339,1.50897 -14.01263,4.40992 -17.37783,7.37102 -5.70035,5.01584 -7.7804,16.70758 -4.08528,22.96291 3.76108,6.367 2.76766,6.2657 57.44169,5.8575 46.02871,-0.34365 50.37103,-0.52715 61.92077,-2.61664 z m -157.47829,-0.64084 c 4.91836,-0.8603 12.02835,-2.76475 15.79997,-4.23213 l 6.8575,-2.66794 -5.79997,-1.0795 c -7.57145,-1.40921 -13.36132,-4.49066 -17.23152,-9.17085 -11.0706,-13.38755 -2.25913,-28.03259 15.52915,-25.81009 2.86472,0.35792 8.43886,2.19884 12.38697,4.09092 3.94812,1.89208 7.36672,3.44015 7.59691,3.44015 0.23018,0 0.41851,-1.04081 0.41851,-2.31291 0,-3.10204 -3.80575,-6.49621 -14,-12.48596 C 465.26097,667.60324 457.92018,656.73905 454.45816,634 c -0.7955,-5.225 -1.44902,-13.13435 -1.45226,-17.57632 -0.009,-12.71478 -1.98077,-29.09766 -4.62036,-38.3948 C 440.08326,548.78672 416.09946,521.11623 386,506.05372 c -16.53556,-8.2748 -31.14717,-12.33953 -51.08114,-14.20999 l -12.58114,-1.18052 -2.66134,-5.08161 C 312.34654,471.58587 287.62714,443.82824 270,429.79955 253.72494,416.84692 234.84048,405.0041 230.45612,405.00079 c -1.35472,-10e-4 -5.70124,13.54853 -8.82138,27.49921 -8.09234,36.18227 -8.82675,72.32089 -1.99725,98.28006 1.40645,5.34597 2.79392,10.74856 3.08327,12.00576 0.4294,1.86572 -1.42133,4.28282 -10.07005,13.1517 -20.11596,20.62803 -37.40433,52.62887 -44.15252,81.7265 -2.58795,11.15902 -2.96164,10.68234 7.75181,9.88786 16.71443,-1.2395 39.39067,2.36577 57.23219,9.09929 10.88266,4.1072 23.64702,9.97843 54.01781,24.8466 15.4,7.53914 33.73083,16.34812 40.73517,19.5755 31.58074,14.55139 62.32437,24.7712 83.76483,27.84514 4.125,0.59141 8.625,1.24042 10,1.44226 7.33947,1.07734 33.2935,0.49415 41.44248,-0.93123 z M 381.25288,651.6309 C 372.27546,643.57153 363.8784,639.54501 348.5,635.92538 c -19.86295,-4.67517 -33.2652,-14.5779 -41.05148,-30.33236 -5.09458,-10.30819 -3.87049,-11.17051 5.61248,-3.95378 9.79913,7.45734 14.8411,9.63763 30.58661,13.22654 7.23119,1.64822 15.38092,4.12846 18.1105,5.51165 7.40263,3.75119 15.16039,11.42829 20.4717,20.25883 7.84037,13.03535 7.35692,18.47625 -0.97693,10.99464 z m 442.83642,32.44667 c 24.74871,-5.53279 45.42123,-16.28976 62.00331,-32.2635 24.751,-23.84298 38.23436,-56.56549 38.24417,-92.81407 0.004,-14.93496 -1.88637,-27.73944 -5.89088,-39.90117 C 914.89655,508.31945 904.93871,488.73208 898.82301,480.5 l -5.20038,-7 -2.71531,14.13123 C 880.15223,543.60388 846.0146,589.24881 794,617.20463 c -16.61003,8.92724 -43.74464,18.1482 -59.82234,20.329 C 727.12612,638.49011 726,638.9663 726,640.9916 c 0,1.02125 -1.575,6.48837 -3.5,12.14914 -1.925,5.66077 -3.5,10.59932 -3.5,10.97455 0,0.37523 3.9375,2.70766 8.75,5.18318 14.30353,7.35765 32.76202,13.21656 51.17846,16.24456 11.29454,1.85702 33.52596,1.13562 45.16084,-1.46546 z M 490.39491,663.25 c -6.40041,-12.95021 -9.43979,-24.494 -10.07092,-38.25 -1.80007,-39.23469 19.32587,-81.7662 54.36512,-109.44984 13.04356,-10.30539 24.45023,-16.7551 38.19428,-21.59633 42.61009,-15.00903 85.59068,-5.98127 118.29293,24.84658 10.53286,9.92914 22.2235,26.04519 27.78472,38.30242 l 1.99504,4.39717 0.022,-4.11901 c 0.0384,-7.20648 -2.9371,-21.49847 -7.05386,-33.88099 -15.50349,-46.63194 -54.15005,-80.66245 -101.29199,-89.19341 -13.6079,-2.46253 -37.22141,-2.20257 -50.29655,0.5537 -28.82603,6.07661 -55.75551,19.34342 -81.00472,39.90701 l -9.2217,7.51039 -0.57272,5.61116 c -2.00292,19.62322 -7.15812,40.55713 -13.613,55.27876 -1.60793,3.66719 -2.9235,7.41571 -2.9235,8.33004 0,0.91434 1.32396,5.41349 2.94213,9.99812 4.87922,13.82385 6.15892,22.29211 7.10317,47.00423 1.09475,28.65111 2.89672,36.26967 11.35313,48 3.08327,4.27696 15.87742,15.46795 17.71129,15.492 0.33535,0.004 -1.33632,-3.9295 -3.71481,-8.742 z M 745.79216,625.42802 C 799.8523,614.40266 836.01829,561.39357 835.99539,493.21562 835.97882,443.85336 816.69348,396.1024 782.08686,359.73676 732.35677,307.47895 653.4423,294.38805 584.41904,326.94621 560.44333,338.25551 535.557,358.82771 521.22085,379.18877 515.92912,386.7044 511,394.97758 511,396.34374 c 0,0.23288 3.58655,-0.61929 7.97012,-1.89372 53.498,-15.5534 105.09489,-8.03225 146.47283,21.35099 16.28913,11.56721 38.72423,35.67734 46.91275,50.41531 5.23062,9.41423 14.05186,30.0311 17.50143,40.90407 11.13343,35.09233 11.90469,72.64821 2.30273,112.12961 l -1.88481,7.75 h 3.90463 c 2.14755,0 7.37317,-0.70739 11.61248,-1.57198 z M 184.61511,563.75 c 2.08199,-2.8875 7.80797,-9.39186 12.7244,-14.45413 l 8.93896,-9.20413 -1.71627,-10.29587 C 198.50042,493.43136 202.35537,446.45859 214.6398,407 c 4.12017,-13.23433 6.79821,-19 8.82512,-19 2.54544,0 16.46882,6.81828 28.38812,13.90166 28.65854,17.03115 53.26857,39.07451 74.53672,66.763 l 7.71753,10.04727 8.19636,1.15323 c 4.50799,0.63427 11.78836,2.0121 16.1786,3.06184 l 7.98225,1.90862 9.30411,-9.86286 c 21.25351,-22.52987 47.91077,-42.0247 71.18555,-52.05901 11.72462,-5.05476 13.37315,-5.05224 15.40407,0.0235 3.23231,8.07834 8.51152,31.84328 8.62196,38.81272 0.0279,1.75713 2.52058,1.55647 4.08526,-0.32886 0.72068,-0.86837 7.18828,-5.5042 14.37244,-10.30184 32.49554,-21.70076 64.44945,-32.11126 98.56211,-32.11126 14.50975,0 28.37385,1.78446 39.35576,5.06549 3.77067,1.12656 7.06032,1.84373 7.31033,1.59371 0.92019,-0.92018 -21.1124,-10.98581 -32.28172,-14.74796 -17.80343,-5.99672 -26.26952,-7.3488 -45.88437,-7.32799 -19.98215,0.0212 -30.08097,1.7981 -51.32321,9.03039 -7.32776,2.49486 -13.96526,4.28973 -14.75,3.9886 -2.50786,-0.96236 -1.56096,-4.6977 4.11799,-16.24467 28.96129,-58.8868 79.9459,-94.70829 145.82408,-102.45516 16.0584,-1.88836 46.46166,-0.65276 61.2935,2.49101 53.09241,11.2535 94.66744,42.22956 122.76158,91.46525 11.22361,19.66965 20.73391,45.42682 24.19145,65.51874 0.86266,5.013 1.80228,9.33955 2.08803,9.61455 1.7697,1.7031 -2.40131,-38.60894 -5.71591,-55.24322 C 835.76952,365.49639 813.35452,314.77649 785.76538,277.75097 746.66996,225.28365 690.59008,183.26826 628.69545,160.07324 588.61188,145.05192 549.86994,138.02937 507,138.01412 464.33269,137.99895 429.00063,143.601 391.5,156.32712 327.42949,178.06994 269.34768,219.22944 230.3861,270.5 216.10147,289.29752 205.5013,306.54689 195.55428,327.1809 163.6423,393.37882 154.9556,465.91034 170.57788,535.72705 172.9905,546.50917 179.66376,569 180.45031,569 c 0.20865,0 2.0828,-2.3625 4.1648,-5.25 z m 262.79758,-30.66295 c 5.92244,-18.74784 9.2019,-44.33721 8.14914,-63.58705 -0.60694,-11.09805 -3.17369,-31.02186 -4.21784,-32.74005 -1.19837,-1.97198 -19.42644,9.53093 -35.12146,22.16355 C 406.98815,466.35608 384,489.08697 384,490.78543 c 0,0.43886 2.5875,2.05527 5.75,3.59201 17.55451,8.53019 35.45759,23.08474 48.97478,39.8147 3.02527,3.74432 5.65523,6.80786 5.84435,6.80786 0.18912,0 1.46872,-3.56083 2.84356,-7.91295 z" />
  </g>
</svg>
